<?xml version="1.0" encoding="UTF-8"?>
<svg id="Layer_1" data-name="Layer 1" xmlns="http://www.w3.org/2000/svg" viewBox="0 0 456.07 182.63">
  <defs>
    <style>
      .cls-1 {
        fill: #a84827;
      }
    </style>
  </defs>
  <path class="cls-1" d="M137.26.5c12.67,9.47,28.86,12.03,44.41,12.92,28.93,1.65,67.86,1.6,96.83.06,15.7-.84,29.11-4.6,42.36-12.98h2c10.82,3.6,11.21,14.29,5.64,23.05-1.4,2.21-6.72,5.5-6.49,7.07,15.65,29.46,43.48,52.5,74.01,65.53,8.26,3.52,21.49,8.73,30.23,9.65,11.39,1.19,22.79-4.97,29.31,8.08v8.95c-4.18,8.47-9.82,11.4-17.77,15.6-110.55,58.51-299.81,56.83-411.96,3.46-10.75-5.12-29.52-13.66-24.5-28.75,4.19-12.59,21.17-7.18,31.55-8.33,20.46-2.26,54.85-21.68,70.47-35.19,12.02-10.4,25.93-26.16,30.79-41.16-11.23-5.84-13.45-22.05-.87-27.97h3.99ZM293.72,39.5c-36.85.56-74.1,1.56-111.1.83-6.29-.12-13.15-2.12-19.75-.88-3.48,4.7-5.7,10.89-8.84,16.06-16.53,27.28-46.65,51.62-75.45,65.03-4.43,2.06-9.51,3.29-13.75,5.19-1.18.53-1.8-.47-1.4,2.07,6.39.87,19.34,9.96,25.15,8.76,4.2-.87,20.34-11.11,24.86-14.09,24.26-15.93,45.65-37.39,59.76-62.83l43.26-.22c3.54,1.31-.01,14.18-.88,17.67-4.61,18.68-16.41,39.04-29.93,52.72-5.92,5.99-12.67,9.85-18.81,15.07-1.04.88-2.09.96-1.66,2.81,42.05,4.87,84.66,5.45,126.71,0,1.72-1.45-8.39-7.1-9.46-7.97-23.71-19.28-42.31-48.26-43.38-79.5,1.35-1.36,34.25-1.47,38.42-1.08,1.22.11,2.31.09,3.51.48,2.57.84,9,13.01,11.5,16.38,15.46,20.85,38.82,41.41,61.61,53.96,4.84,2.66,12.5,7.6,17.89,6.58,1.84-.35,21.75-8.32,20.7-9.72-42.55-14.92-79.66-46.53-98.98-87.33Z"/>
</svg>